<svg version="1.0" xmlns="http://www.w3.org/2000/svg" width="800.000000" height="800.000000" viewBox="0 0 800.000000 800.000000" preserveAspectRatio="xMidYMid meet">
  <metadata>
    <rdf:RDF xmlns:rdf="http://www.w3.org/1999/02/22-rdf-syntax-ns#" xmlns:rdfs="http://www.w3.org/2000/01/rdf-schema#" xmlns:dc="http://purl.org/dc/elements/1.1/">
      <rdf:Description dc:format="image/svg+xml" dc:Label="1" dc:ContentProducer="001191330110MACRLGPT8B00000" dc:ProduceID="422892409" dc:ReservedCode1="nMcvN/xWzKACLghSMfQ6k0U7EwFv21x8kCE2v+DwjoU=" dc:ContentPropagator="001191330110MACRLGPT8B00000" dc:PropagateID="422892409" dc:ReservedCode2="nMcvN/xWzKACLghSMfQ6k0U7EwFv21x8kCE2v+DwjoU="/>
    </rdf:RDF>
  </metadata>
  <g transform="translate(142.911622,677.180089) scale(0.067125,-0.067125)" fill="#feccc4" stroke="none">
    <path d="M3725 7241 c-302 -65 -539 -217 -689 -444 -61 -93 -108 -196 -133 -290 -18 -67 -15 -90 14 -105 37 -20 61 3 83 80 93 316 321 539 647 633 227 66 485 50 685 -43 89 -42 212 -135 281 -214 106 -121 147 -202 227 -452 5 -16 17 -77 25 -135 26 -176 26 -176 58 -179 51 -6 60 12 53 108 -6 89 -40 252 -74 355 -107 326 -372 581 -695 671 -128 36 -350 42 -482 15z"/>
    <path d="M2290 6379 c-153 -18 -322 -80 -457 -169 -84 -55 -209 -191 -261 -282 -93 -164 -127 -320 -120 -545 5 -124 10 -162 33 -233 128 -401 469 -676 864 -697 93 -5 105 -4 118 12 7 11 13 27 13 36 0 34 -26 46 -116 53 -226 17 -414 104 -565 262 -105 111 -177 232 -221 374 -20 66 -23 95 -23 240 0 143 4 176 24 250 65 232 190 386 405 499 310 164 683 122 910 -103 35 -33 85 -95 112 -136 51 -78 79 -95 111 -69 25 21 9 72 -48 154 -134 194 -356 330 -573 350 -33 3 -77 7 -96 9 -19 2 -69 -1 -110 -5z"/>
    <path d="M4921 5854 c-25 -9 -65 -32 -90 -50 -73 -57 -465 -467 -485 -509 -16 -33 -17 -43 -6 -76 12 -35 17 -39 46 -39 28 0 35 4 40 28 3 15 8 36 11 46 3 11 107 122 230 247 252 255 286 280 355 260 52 -16 117 -76 174 -162 47 -72 70 -87 104 -69 32 17 24 56 -24 129 -116 173 -236 239 -355 195z"/>
    <path d="M2730 5760 c-64 -9 -160 -44 -210 -76 -159 -102 -241 -306 -211 -526 22 -170 113 -341 265 -496 137 -141 272 -234 476 -327 205 -94 224 -98 317 -64 245 90 497 254 640 416 62 70 144 195 176 268 44 103 62 313 36 437 -17 82 -72 187 -126 241 -152 152 -443 177 -732 63 -36 -15 -72 -26 -80 -26 -9 0 -51 14 -93 30 -43 17 -108 37 -145 44 -88 19 -243 27 -313 16z m266 -111 c75 -13 142 -34 222 -70 34 -16 66 -29 71 -29 4 0 46 18 92 39 118 55 224 74 374 69 106 -4 126 -8 172 -31 140 -72 203 -194 203 -394 0 -113 -18 -184 -76 -300 -105 -210 -365 -421 -671 -543 l-101 -40 -79 30 c-397 157 -682 412 -771 690 -21 66 -23 90 -20 195 3 113 5 125 36 187 49 99 128 163 242 194 56 16 227 17 306 3z"/>
    <path d="M2992 5314 c-89 -43 -132 -120 -132 -234 0 -110 43 -198 139 -289 75 -71 275 -191 316 -191 21 0 185 96 254 148 61 47 132 125 159 177 24 44 27 62 27 145 0 79 -4 102 -22 136 -43 81 -127 126 -231 126 -58 0 -140 -28 -174 -59 -16 -14 -21 -13 -65 14 -100 61 -183 69 -271 27z m163 -84 c8 0 44 -21 81 -46 75 -51 64 -52 164 11 45 29 65 35 108 35 67 0 101 -18 130 -68 75 -133 -29 -290 -285 -432 l-41 -23 -49 28 c-87 51 -187 122 -220 156 -95 102 -111 267 -31 319 25 15 95 30 116 24 8 -2 20 -4 27 -4z"/>
    <path d="M5124 5409 c-50 -14 -125 -69 -170 -125 -113 -139 -113 -345 -1 -572 57 -114 76 -125 238 -130 243 -8 403 60 477 203 20 39 26 65 26 120 1 127 -70 219 -189 246 -52 12 -55 14 -55 43 0 61 -22 110 -69 157 -28 29 -61 51 -86 58 -47 13 -127 13 -171 0z m151 -103 c46 -20 75 -69 75 -128 0 -84 22 -108 115 -123 95 -16 130 -60 123 -160 -3 -49 -10 -70 -31 -99 -62 -81 -188 -120 -364 -114 -125 4 -126 5 -178 136 -30 76 -38 111 -42 185 -4 80 -2 99 17 142 60 139 178 205 285 161z"/>
    <path d="M5783 5049 c-7 -7 -13 -25 -13 -39 0 -22 13 -34 95 -80 114 -65 199 -130 226 -173 27 -43 22 -119 -12 -168 -13 -20 -76 -92 -140 -160 -64 -68 -155 -167 -204 -219 -110 -120 -132 -134 -191 -127 -62 7 -95 41 -205 207 -49 74 -94 141 -99 148 -27 32 -88 -7 -76 -50 8 -32 132 -227 189 -299 60 -75 124 -109 202 -109 97 0 130 25 336 249 68 74 152 164 186 200 88 94 124 157 130 229 12 133 -49 217 -240 330 -110 66 -163 83 -184 61z"/>
    <path d="M4374 5005 c-29 -44 -5 -63 196 -150 241 -106 226 -101 244 -85 22 17 20 63 -3 84 -10 9 -54 32 -97 50 -44 19 -126 55 -183 80 -57 25 -112 46 -122 46 -10 0 -26 -11 -35 -25z"/>
    <path d="M2687 4273 c-11 -10 -8 -61 9 -151 l16 -85 -60 -61 c-120 -124 -162 -203 -162 -306 0 -70 27 -158 70 -230 65 -110 318 -400 348 -400 16 0 52 37 52 53 0 8 -37 56 -83 108 -119 136 -212 258 -246 323 -63 119 -52 214 36 319 31 37 59 67 64 67 4 0 13 -26 20 -57 13 -66 50 -212 74 -299 52 -185 165 -447 219 -511 58 -69 129 -18 77 55 -22 32 -82 159 -121 257 -60 151 -156 504 -167 611 l-6 60 41 35 c40 34 103 68 195 108 43 18 47 23 47 55 0 25 -6 38 -20 46 -28 15 -115 -18 -212 -79 -43 -28 -79 -47 -82 -43 -2 4 -7 27 -11 52 -11 66 -21 80 -59 80 -18 0 -36 -3 -39 -7z"/>
    <path d="M3342 4163 c-54 -45 -133 -308 -152 -508 -13 -133 -9 -217 22 -418 21 -143 32 -167 72 -167 49 0 51 18 26 193 -19 135 -22 188 -17 317 7 201 35 325 118 528 23 56 -23 94 -69 55z"/>
    <path d="M3908 4088 c-9 -7 -28 -33 -43 -57 -30 -48 -143 -161 -220 -221 -27 -21 -96 -61 -151 -89 -56 -28 -105 -58 -108 -67 -9 -24 2 -52 26 -65 39 -21 264 104 386 216 l62 57 0 -51 c0 -149 73 -325 178 -430 66 -66 176 -131 220 -131 27 0 44 23 40 57 -2 23 -14 34 -71 63 -206 107 -299 335 -255 624 11 73 11 79 -7 92 -23 17 -37 18 -57 2z"/>
    <path d="M5782 3903 c-5 -10 -12 -51 -16 -92 -22 -244 -128 -530 -269 -726 -63 -88 -146 -185 -158 -185 -5 0 5 28 22 62 74 146 102 294 103 538 0 191 -9 232 -52 238 -47 7 -49 -4 -55 -246 -6 -258 -19 -338 -71 -445 -79 -163 -274 -337 -378 -337 l-38 0 0 88 c0 160 -63 342 -145 422 -31 30 -37 32 -60 22 -72 -33 -208 113 -266 283 -25 75 -29 80 -57 83 -68 7 -67 -71 2 -213 32 -65 62 -108 108 -155 71 -74 175 -135 212 -126 21 5 26 -1 45 -45 32 -74 61 -194 61 -254 0 -104 -85 -290 -152 -330 -29 -17 -50 -20 -158 -19 -146 1 -220 16 -373 76 l-108 41 -21 -20 c-36 -36 -19 -66 59 -100 166 -74 339 -110 467 -98 78 8 78 15 5 -82 -84 -110 -65 -153 66 -153 99 0 201 26 305 77 128 63 216 152 346 349 57 87 133 186 186 243 50 53 120 136 156 184 37 48 68 83 70 77 6 -17 -17 -270 -28 -311 -10 -36 -78 -135 -87 -125 -3 2 -12 19 -21 38 -21 41 -59 49 -87 18 -19 -21 -19 -22 13 -115 56 -166 40 -214 -102 -299 -86 -52 -149 -73 -331 -110 -195 -40 -245 -65 -245 -121 0 -51 28 -59 100 -27 30 13 116 37 192 53 226 47 355 106 443 200 64 70 79 111 73 194 l-5 62 49 42 c90 79 118 162 133 401 8 138 17 188 75 425 58 237 67 285 76 405 6 79 5 93 -11 110 -22 25 -61 26 -73 3z m-608 -1210 c-130 -214 -236 -333 -348 -388 -76 -37 -226 -79 -238 -67 -4 4 5 23 20 42 61 75 166 228 193 281 l28 57 65 -5 c59 -5 72 -3 138 29 40 19 98 57 128 85 30 28 56 50 58 48 2 -2 -18 -38 -44 -82z"/>
    <path d="M3535 3524 c-78 -43 -109 -100 -103 -189 7 -112 76 -175 189 -175 104 0 189 84 189 186 0 55 -41 133 -86 164 -47 31 -144 39 -189 14z m147 -114 c27 -27 30 -36 25 -73 -7 -54 -35 -77 -92 -77 -55 0 -85 33 -85 92 0 84 91 119 152 58z"/>
    <path d="M2291 3244 c-25 -31 -25 -35 -8 -58 11 -15 29 -19 88 -20 64 -2 87 -8 153 -39 89 -42 106 -45 130 -18 16 17 16 23 4 48 -26 54 -179 113 -293 113 -46 0 -56 -4 -74 -26z"/>
    <path d="M2300 3083 c-215 -82 -367 -222 -420 -387 -58 -177 19 -427 162 -533 42 -30 62 -38 109 -41 50 -4 58 -2 68 16 16 31 -2 70 -36 77 -107 24 -187 129 -214 280 -22 128 10 230 102 324 62 63 145 119 226 151 76 31 83 37 83 75 0 41 -32 56 -80 38z"/>
    <path d="M2696 3037 c-15 -11 -22 -44 -37 -183 -21 -201 -23 -266 -7 -282 16 -16 53 -15 67 2 12 14 51 316 51 394 0 29 -6 48 -20 62 -24 24 -30 24 -54 7z"/>
    <path d="M4368 3011 c-56 -36 -88 -96 -88 -167 1 -65 25 -111 77 -148 36 -25 52 -30 105 -30 71 0 110 16 157 66 62 67 63 165 0 241 -61 73 -169 90 -251 38z m167 -94 c41 -34 39 -90 -3 -128 -34 -31 -55 -35 -95 -20 -40 15 -57 40 -57 80 0 80 94 121 155 68z"/>
    <path d="M3870 2950 c-29 -29 -25 -57 12 -80 42 -26 113 -36 133 -20 19 16 19 54 1 69 -7 6 -39 20 -70 31 -56 19 -57 19 -76 0z"/>
    <path d="M3143 2944 c-49 -18 -116 -81 -146 -138 -18 -33 -22 -58 -22 -132 0 -83 2 -94 30 -139 43 -70 80 -88 188 -93 70 -4 90 -8 94 -21 41 -125 139 -191 286 -191 89 0 159 30 211 92 53 61 70 105 74 189 3 61 0 83 -17 120 -31 66 -73 111 -132 144 -44 24 -68 30 -127 32 l-74 2 -28 44 c-40 63 -116 99 -219 104 -51 2 -90 -3 -118 -13z m179 -99 c25 -9 58 -29 73 -45 l29 -30 -41 -37 c-45 -42 -93 -129 -93 -168 0 -28 -4 -29 -90 -25 -96 3 -135 50 -128 151 9 131 119 198 250 154z m310 -147 c42 -12 109 -74 120 -110 10 -37 9 -104 -3 -135 -54 -144 -280 -165 -346 -33 -49 96 -8 224 85 263 73 31 87 32 144 15z"/>
    <path d="M2434 2741 c-44 -27 -103 -98 -131 -160 -22 -46 -25 -63 -21 -127 5 -78 24 -114 59 -114 38 0 50 28 43 99 -8 85 7 123 81 200 30 32 55 63 55 69 0 13 -36 52 -47 52 -5 0 -22 -8 -39 -19z"/>
    <path d="M2771 2474 c-126 -98 -161 -135 -161 -170 0 -80 316 -440 500 -570 274 -193 609 -318 948 -352 93 -9 122 1 122 42 0 36 -21 46 -127 61 -494 71 -846 245 -1134 562 -71 78 -199 241 -199 253 0 7 50 49 184 153 20 16 36 37 36 48 0 31 -19 59 -40 59 -10 0 -68 -39 -129 -86z"/>
    <path d="M4280 2323 c-8 -3 -46 -31 -85 -63 -65 -53 -286 -218 -311 -233 -7 -4 -32 5 -57 18 -37 21 -46 32 -52 62 -16 85 -59 118 -100 77 -16 -16 -14 -58 6 -110 6 -17 0 -28 -28 -55 -38 -35 -63 -84 -63 -121 0 -77 52 -148 121 -166 49 -12 127 4 161 34 29 26 58 92 58 135 0 32 6 40 53 72 28 20 90 66 137 102 47 37 109 84 138 106 29 22 62 55 72 72 17 27 18 34 6 52 -14 21 -32 27 -56 18z m-478 -380 c24 -28 29 -53 16 -76 -15 -30 -27 -37 -65 -37 -57 0 -82 63 -41 107 26 27 69 30 90 6z"/>
    <path d="M3120 2215 c-17 -21 -8 -121 13 -142 13 -13 23 -15 44 -7 25 8 28 15 31 60 4 72 -10 104 -47 104 -15 0 -34 -7 -41 -15z"/>
    <path d="M3293 2190 c-41 -17 -39 -51 9 -195 26 -76 56 -110 92 -101 38 9 42 44 13 118 -14 35 -31 83 -37 108 -11 42 -35 81 -49 79 -3 0 -16 -4 -28 -9z"/>
    <path d="M5394 2095 c-24 -37 -14 -58 43 -85 91 -44 124 -87 153 -195 13 -50 20 -61 44 -70 53 -18 70 38 42 144 -19 68 -57 123 -115 165 -97 71 -140 81 -167 41z"/>
    <path d="M4336 1958 c-8 -18 -17 -49 -21 -68 -3 -19 -12 -55 -20 -80 -31 -105 -75 -313 -70 -330 14 -45 79 -35 94 13 20 63 111 434 111 453 0 28 -19 44 -53 44 -22 0 -31 -7 -41 -32z"/>
    <path d="M5248 1968 c-9 -7 -18 -20 -19 -28 -4 -20 10 -61 26 -80 23 -27 72 -125 100 -201 24 -62 28 -91 29 -174 1 -91 -2 -105 -28 -160 -38 -77 -115 -154 -191 -190 -52 -25 -72 -29 -150 -29 -49 -1 -118 3 -151 8 -58 8 -63 7 -73 -13 -33 -60 26 -92 184 -98 94 -5 119 -2 173 16 155 53 270 168 323 322 18 55 21 79 16 169 -6 120 -23 176 -95 319 -67 135 -104 170 -144 139z"/>
    <path d="M2779 1839 c-21 -21 -22 -28 -16 -138 8 -137 26 -204 70 -263 43 -57 87 -78 163 -78 49 0 68 5 107 30 l46 29 7 -49 c3 -27 15 -62 25 -79 41 -67 152 -121 251 -121 83 0 194 55 234 116 15 22 15 26 0 49 -22 34 -38 32 -107 -14 -94 -63 -171 -64 -256 -2 -34 24 -43 38 -51 78 -5 26 -8 73 -5 104 5 51 3 58 -18 73 -40 28 -61 20 -119 -45 -50 -55 -60 -61 -102 -66 -44 -5 -50 -3 -81 28 -40 40 -53 89 -63 236 -9 128 -35 162 -85 112z"/>
    <path d="M4892 1808 c-8 -8 -12 -50 -12 -132 0 -181 -35 -280 -116 -328 -27 -16 -34 -26 -34 -52 0 -40 15 -56 54 -56 41 0 110 75 155 169 34 73 35 78 38 215 3 104 1 148 -9 166 -15 28 -56 38 -76 18z"/>
  </g>
</svg>